<svg width="16" height="16" xmlns="http://www.w3.org/2000/svg">

 <g>
  <title>Layer 1</title>
  <path id="svg_1" d="m11,1a1,1 0 0 0 -1,1l0,3a1,1 0 0 0 1,1l3,0a1,1 0 0 0 1,-1l0,-3a1,1 0 0 0 -1,-1l-3,0zm-4.268,4a2,2 0 0 1 0.268,1l0,1.117l2.268,-1.117a2,2 0 0 1 -0.268,-1l0,-1.117l-2.268,1.117zm-4.732,0a1,1 0 0 0 -1,1l0,4a1,1 0 0 0 1,1l3,0a1,1 0 0 0 1,-1l0,-4a1,1 0 0 0 -1,-1l-3,0zm5,3.883l0,1.117a2,2 0 0 1 -0.268,1l2.268,1.117l0,-1.117a2,2 0 0 1 0.268,-1l-2.268,-1.117zm4,1.117a1,1 0 0 0 -1,1l0,3a1,1 0 0 0 1,1l3,0a1,1 0 0 0 1,-1l0,-3a1,1 0 0 0 -1,-1l-3,0z" fill="#f9f57f"/>
 </g>
</svg>